<svg version="1.1" id="Layer_1" xmlns:x="ns_extend;" xmlns:i="ns_ai;" xmlns:graph="ns_graphs;" xmlns="http://www.w3.org/2000/svg" xmlns:xlink="http://www.w3.org/1999/xlink" x="0px" y="0px" viewBox="0 0 967.8 938.1" style="enable-background:new 0 0 967.8 938.1;" xml:space="preserve">
 <metadata>
  <sfw xmlns="ns_sfw;">
   <slices>
   </slices>
   <sliceSourceBounds bottomLeftOrigin="true" height="938.1" width="967.8" x="166.1" y="194.1">
   </sliceSourceBounds>
  </sfw>
 </metadata>
 <g>
  <g id="LOGOS">
   <path d="M665.3,120.1C624.7,93.6,600.1,48.5,600.1,0h-103l-0.2,412.7c-1.8,47.7-42,85-89.7,83.1c-47.7-1.8-85-42-83.1-89.7
			c1.8-46.5,40-83.2,86.5-83.2c8.7,0,17.3,1.4,25.5,4V221.7c-8.5-1.2-17-1.8-25.5-1.9c-104.5,0-189.5,85-189.5,189.5
			c0.2,104.6,84.9,189.4,189.6,189.5c104.5,0,189.5-85,189.5-189.5V200.1c41.7,30,91.8,46.2,143.2,46.1v-103
			C715.6,143.3,688.5,135.2,665.3,120.1z">
   </path>
   <path d="M0,715.2h165.9l-15.2,47.5h-43v175.5H54V762.6l-54,0.1V715.2z">
   </path>
   <path d="M437.7,715.2h169.7l-15.2,47.5h-46.8v175.5h-53.7V762.6l-54,0.1V715.2z">
   </path>
   <polygon points="176,786.1 229.2,786.1 229.2,938.1 176.3,938.1 		">
   </polygon>
   <path d="M250.3,714.5h53.1v103.8l52.7-51.7h63.4l-66.6,64.6l74.6,106.8H369l-49.8-74l-15.8,15.3v58.7h-53.1V714.5z">
   </path>
   <path d="M790.6,714.5h53.1v103.8l52.7-51.7h63.4l-66.6,64.6l74.6,106.8h-58.5l-49.8-74l-15.8,15.3v58.7h-53.1V714.5z">
   </path>
   <circle cx="202.6" cy="741.9" r="26.8">
   </circle>
   <path d="M678,756.1c-50.3,0-91,40.7-91,91c0,50.3,40.7,91,91,91s91-40.7,91-91C769,796.8,728.2,756.1,678,756.1L678,756.1z
			 M678,891.3c-24.4,0-44.2-19.8-44.2-44.2s19.8-44.2,44.2-44.2c24.4,0,44.2,19.8,44.2,44.2l0,0C722.2,871.5,702.4,891.3,678,891.3
			L678,891.3z">
   </path>
  </g>
 </g>
</svg>